<?xml version="1.0" encoding="utf-8"?>
<!-- Generator: Adobe Illustrator 21.1.0, SVG Export Plug-In . SVG Version: 6.00 Build 0)  -->
<svg version="1.1" id="Layer_1" xmlns="http://www.w3.org/2000/svg" xmlns:xlink="http://www.w3.org/1999/xlink" x="0px" y="0px"
	 viewBox="0 0 399.3 100.7" style="enable-background:new 0 0 399.3 100.7;" xml:space="preserve">
<style type="text/css">
	.st0{stroke:#000046;stroke-miterlimit:10;}
	.st1{fill:none;stroke:#000000;stroke-width:8;stroke-miterlimit:10;}
	.st2{fill:#F2F2F2;}
	.st3{font-family:'BarlowCondensed-Bold';}
	.st4{font-size:77.6654px;}
	.st5{letter-spacing:-0.9;}
	.st6{font-family:'Barlow-Medium';}
	.st7{font-size:26.6288px;}
</style>
<path class="st0" d="M56.6,50.4l-7.4,7.4c-3.5,3.5-9.3,3.5-12.9,0l-1.4-1.4c-3.5-3.5-3.5-9.3,0-12.9l7.4-7.4c3.5-3.5,9.3-3.5,12.9,0
	l1.4,1.4C60.1,41.1,60.1,46.9,56.6,50.4z"/>
<path class="st1" d="M33.1,60.5l-8.6,8.8c-4,4.2-7,6.4-8,9.3C12.3,90.6,26,97.2,33.2,89"/>
<path class="st2" d="M44.8,48.7c1,1,1,2.5,0,3.5l-5.6,5.6c-1,1-2.6,1-3.5,0l-0.5-0.5c-1-1-1-2.6,0-3.5l5.6-5.6
	c0.9-0.9,2.2-1,3.2-0.3l0,0l3.4-3.4c0.2-0.2,0.6-0.2,0.8,0l0,0c0.2,0.2,0.2,0.6,0,0.8L44.8,48.7z M41.6,51.6l-0.2-0.2
	c-0.5-0.5-1.3-0.5-1.7,0l-2.5,2.5c-0.5,0.5-0.5,1.3,0,1.7l0.2,0.2c0.5,0.5,1.3,0.5,1.7,0l2.5-2.5C42.1,52.8,42.1,52.1,41.6,51.6z"/>
<path class="st0" d="M27.5,75.4c5.6,3.9,12.5,6.2,19.9,6.2c19.3,0,34.9-15.6,34.9-34.9S66.7,11.8,47.4,11.8S12.5,27.5,12.5,46.7
	c0,7.3,2.2,14,6,19.6l-4.8,4.5c-4.9-6.8-7.8-15.1-7.8-24.1c0-22.9,18.5-41.4,41.4-41.4s41.4,18.5,41.4,41.4S70.2,88.2,47.4,88.2
	c-9.1,0-17.5-2.9-24.3-7.9L27.5,75.4z"/>
<path class="st0" d="M38,63.8c2.8,1.5,6,2.4,9.4,2.4c10.8,0,19.5-8.7,19.5-19.5s-8.7-19.5-19.5-19.5S27.9,36,27.9,46.7
	c0,3.1,0.8,6.2,2.1,8.9l-4.8,4.5c-2.3-3.9-3.7-8.4-3.7-13.3c0-14.3,11.6-25.9,25.9-25.9s25.9,11.6,25.9,25.9S61.6,72.6,47.4,72.6
	c-5.1,0-9.9-1.5-13.9-4L38,63.8z"/>
<text transform="matrix(1.0538 0 0 1 101.0646 63.5797)" class="st3 st4 st5">FrontSight</text>
<text transform="matrix(1.0538 0 0 1 102.0645 88.2487)" class="st6 st7">Digital Marketing</text>
</svg>
