<svg version="1.1" id="Layer_1" xmlns="http://www.w3.org/2000/svg" x="0" y="0" viewBox="0 0 399.3 100.7" xml:space="preserve"><style>.st2{fill:#1a1a1a}</style><path d="M56.6 50.4l-7.4 7.4c-3.5 3.5-9.3 3.5-12.9 0l-1.4-1.4c-3.5-3.5-3.5-9.3 0-12.9l7.4-7.4c3.5-3.5 9.3-3.5 12.9 0l1.4 1.4c3.5 3.6 3.5 9.4 0 12.9z"/><path d="M33.1 60.5l-8.6 8.8c-4 4.2-7 6.4-8 9.3-4.2 12 9.5 18.6 16.7 10.4" fill="none" stroke="#000" stroke-width="8" stroke-miterlimit="10"/><path d="M44.8 48.7c1 1 1 2.5 0 3.5l-5.6 5.6c-1 1-2.6 1-3.5 0l-.5-.5c-1-1-1-2.6 0-3.5l5.6-5.6c.9-.9 2.2-1 3.2-.3l3.4-3.4c.2-.2.6-.2.8 0 .2.2.2.6 0 .8l-3.4 3.4zm-3.2 2.9l-.2-.2c-.5-.5-1.3-.5-1.7 0l-2.5 2.5c-.5.5-.5 1.3 0 1.7l.2.2c.5.5 1.3.5 1.7 0l2.5-2.5c.5-.5.5-1.2 0-1.7z" fill="#fff"/><path d="M27.5 75.4c5.6 3.9 12.5 6.2 19.9 6.2 19.3 0 34.9-15.6 34.9-34.9S66.7 11.8 47.4 11.8 12.5 27.5 12.5 46.7c0 7.3 2.2 14 6 19.6l-4.8 4.5C8.8 64 5.9 55.7 5.9 46.7c0-22.9 18.5-41.4 41.4-41.4s41.4 18.5 41.4 41.4-18.5 41.5-41.3 41.5c-9.1 0-17.5-2.9-24.3-7.9l4.4-4.9z"/><path d="M38 63.8c2.8 1.5 6 2.4 9.4 2.4 10.8 0 19.5-8.7 19.5-19.5s-8.7-19.5-19.5-19.5S27.9 36 27.9 46.7c0 3.1.8 6.2 2.1 8.9l-4.8 4.5c-2.3-3.9-3.7-8.4-3.7-13.3 0-14.3 11.6-25.9 25.9-25.9s25.9 11.6 25.9 25.9-11.7 25.8-25.9 25.8c-5.1 0-9.9-1.5-13.9-4l4.5-4.8z"/><path class="st2" d="M133.6 18.6h-17c-.2 0-.4.2-.4.4v12.3c0 .2.2.4.4.4h9.7c.6 0 1 .4 1 .9v7.5c0 .5-.4.9-1 .9h-9.7c-.2 0-.4.2-.4.4v21.2c0 .5-.4.9-1 .9h-9.6c-.6 0-1-.4-1-.9V10.1c0-.5.4-.9 1-.9h28c.6 0 1 .4 1 .9v7.5c0 .6-.4 1-1 1zM156.5 24c.4.3.5.7.4 1.2l-1.6 9.1c-.1.7-.5.8-1.1.6-1.2-.4-2.9-.5-4.3 0-2.5.5-4.3 3.3-4.3 6.4v21.4c0 .5-.4.9-1 .9H135c-.6 0-1-.4-1-.9V24.6c0-.5.4-.9 1-.9h9.6c.6 0 1 .4 1 .9v3.2c0 .4.2.5.4.2 1.3-2.8 3.4-4.8 7-4.8 1.6-.1 2.7.3 3.5.8zM158 51.2V36.1c0-7.8 5.7-13 15.5-13s15.5 5.3 15.5 13v15.1c0 8.2-5.7 13-15.5 13s-15.5-4.9-15.5-13zm19.6-.9V36.9c0-2.6-1.6-4.4-4-4.4s-4 1.8-4 4.4v13.4c0 2.6 1.6 4.5 4 4.5s4-1.9 4-4.5zM223.8 36.3v26.3c0 .5-.4.9-1 .9h-9.6c-.6 0-1-.4-1-.9V37.2c0-3-1.3-4.7-3.7-4.7-2.5 0-3.9 1.8-3.9 4.9v25.3c0 .5-.4.9-1 .9H194c-.6 0-1-.4-1-.9V24.6c0-.5.4-.9 1-.9h9.6c.6 0 1 .4 1 .9v1.6c0 .3.3.3.7-.2 2.1-2.4 5-3 7.4-3 7.6 0 11.1 5.1 11.1 13.3zM246.2 31.3h-4.6c-.2 0-.4.2-.4.4v18.5c0 3.2 1.4 4 3.6 3.9h.6c.6 0 1 .4 1 .9v7.6c0 .5-.4.9-1 .9h-3.3c-7.1 0-12-1.5-12-9.2V31.7c0-.2-.2-.4-.4-.4H227c-.6 0-1-.4-1-.9v-5.8c0-.5.4-.9 1-.9h2.7c.2 0 .4-.2.4-.4v-8.6c0-.5.4-.9 1-.9h9.2c.6 0 1 .4 1 .9v8.6c0 .2.2.4.4.4h4.6c.6 0 1 .4 1 .9v5.8c-.1.6-.5.9-1.1.9zM249.9 50v-2.5c0-.5.4-.9 1-.9h9.4c.6 0 1 .4 1 .9v1.9c0 3.3 1.9 5.4 4.5 5.4s4.6-2 4.6-5c0-3.3-2.4-5-7.9-8.9-6.1-4.1-12.8-8.7-12.8-17.7 0-8.9 6.4-14.5 15.7-14.5 9.7 0 16 6 16 14.9v1.9c0 .5-.4.9-1 .9H271c-.6 0-1-.4-1-.9v-2.1c0-3.2-1.9-5.3-4.7-5.3-2.5 0-4.3 1.9-4.3 5.1 0 3.3 1.9 5 7.6 9.1 8.5 5.9 13.1 9.3 13.1 17.1 0 9.2-6.5 14.9-16 14.9-9.5-.1-15.8-5.9-15.8-14.3zM284.8 13.4c0-3.9 2.7-6.5 6.7-6.5s6.6 2.6 6.6 6.5-2.6 6.4-6.6 6.4-6.7-2.5-6.7-6.4zm.9 49.2v-38c0-.5.4-.9 1-.9h9.6c.6 0 1 .4 1 .9v38.1c0 .5-.4.9-1 .9h-9.6c-.6 0-1-.4-1-1zM321.9 23.7h9.6c.6 0 1 .4 1 .9v37.1c0 11-4.3 19-23.2 17.9-.7-.1-1-.5-1-1V71c0-.6.4-.9 1.1-.9 10.1.4 11.5-3.4 11.5-9.6 0-.3-.2-.3-.5 0-2.2 2.7-5.5 3.3-7.6 3.3-7.7 0-11.2-5.1-11.2-13V36.1c0-8.3 3.8-13 11.2-13 2.4 0 5.5.6 7.6 3.5.2.3.5.2.5-.2v-1.8c.1-.6.5-.9 1-.9zM321 50V36.9c0-2.6-1.6-4.4-3.9-4.4s-3.8 1.8-3.8 4.4V50c0 2.6 1.6 4.4 3.8 4.4 2.2 0 3.9-1.8 3.9-4.4zM367.4 36.3v26.3c0 .5-.4.9-1 .9h-9.6c-.6 0-1-.4-1-.9V37.2c0-3-1.3-4.7-3.7-4.7-2.5 0-3.9 1.8-3.9 4.9v25.3c0 .5-.4.9-1 .9h-9.6c-.6 0-1-.4-1-.9V10.1c0-.5.4-.9 1-.9h9.6c.6 0 1 .4 1 .9v16c0 .3.3.3.7-.2 2.1-2.4 5-3 7.4-3 7.5.1 11.1 5.2 11.1 13.4zM389.8 31.3h-4.6c-.2 0-.4.2-.4.4v18.5c0 3.2 1.4 4 3.6 3.9h.6c.6 0 1 .4 1 .9v7.6c0 .5-.4.9-1 .9h-3.3c-7.1 0-12-1.5-12-9.2V31.7c0-.2-.2-.4-.4-.4h-2.7c-.6 0-1-.4-1-.9v-5.8c0-.5.4-.9 1-.9h2.7c.2 0 .4-.2.4-.4v-8.6c0-.5.4-.9 1-.9h9.2c.6 0 1 .4 1 .9v8.6c0 .2.2.4.4.4h4.6c.6 0 1 .4 1 .9v5.8c-.1.6-.5.9-1.1.9z"/><g><path class="st2" d="M104.4 87.8V70c0-.2.2-.4.4-.4h6.7c3.9 0 6.4 2.1 6.4 5.3v8c0 3.2-2.5 5.3-6.4 5.3h-6.7c-.3 0-.4-.1-.4-.4zm2.8-1.8h4.3c2.2 0 3.6-1.4 3.6-3.5v-7.2c0-2.1-1.4-3.5-3.6-3.5h-4.3c-.1 0-.1.1-.1.1v14c0 .1 0 .1.1.1zM120.9 71c0-1 .8-1.7 1.9-1.7s1.8.7 1.8 1.7-.7 1.7-1.8 1.7-1.9-.7-1.9-1.7zm.6 16.8V75.1c0-.2.2-.4.4-.4h1.9c.3 0 .4.2.4.4v12.8c0 .2-.2.4-.4.4h-1.9c-.3-.1-.4-.2-.4-.5zM137.3 74.7h1.9c.3 0 .4.2.4.4v12.5c0 5.1-3.9 6.3-8.3 5.9-.3 0-.4-.2-.4-.4l.1-1.6c0-.2.2-.4.5-.4 3.8.2 5.5-.7 5.5-3.6V87c0-.1-.1-.1-.2-.1-.7.8-1.8 1.3-3.4 1.3-2.2 0-4.5-1.1-5.3-3.6-.3-.9-.4-2-.4-3.2 0-1.3.1-2.4.4-3.4.7-2.1 2.6-3.5 5.1-3.5 1.6 0 2.8.5 3.6 1.3.1.1.2.1.2-.1v-.6c-.1-.2.1-.4.3-.4zm-.4 6.7c0-1.6-.1-1.9-.2-2.5-.3-1.3-1.3-2.2-3-2.2-1.6 0-2.7 1-3.1 2.2-.2.5-.3 1.2-.3 2.5s.1 2.1.3 2.5c.4 1.3 1.5 2.2 3.1 2.2 1.7 0 2.7-1 3-2.2.2-.5.2-.9.2-2.5zM142.9 71c0-1 .8-1.7 1.9-1.7s1.8.7 1.8 1.7-.7 1.7-1.8 1.7-1.9-.7-1.9-1.7zm.6 16.8V75.1c0-.2.2-.4.4-.4h1.9c.3 0 .4.2.4.4v12.8c0 .2-.2.4-.4.4h-1.9c-.3-.1-.4-.2-.4-.5zM156.8 76.8h-2.9c-.1 0-.1.1-.1.1v6.9c0 1.5.7 2.1 2.2 2.1h.7c.3 0 .4.2.4.4v1.4c0 .2-.1.4-.4.4h-1.2c-2.6 0-4.3-.6-4.3-3.4v-7.9c0-.1-.1-.1-.1-.1h-1.5c-.3 0-.4-.2-.4-.4V75c0-.2.2-.4.4-.4h1.5c.1 0 .1-.1.1-.1v-3c0-.2.2-.4.4-.4h1.7c.3 0 .4.2.4.4v3c0 .1.1.1.1.1h2.9c.3 0 .4.2.4.4v1.3c.1.3-.1.5-.3.5zM171.2 79v8.9c0 .2-.2.4-.4.4H169c-.3 0-.4-.2-.4-.4v-.7c0-.1-.1-.2-.2-.1-1 .9-2.5 1.4-4.2 1.4-2.5 0-4.7-1.2-4.7-4 0-2.7 2.1-4.4 5.8-4.4h3.1c.1 0 .1-.1.1-.1v-.7c0-1.5-.9-2.5-2.9-2.5-1.6 0-2.5.6-2.8 1.5-.1.2-.2.3-.5.3l-2-.2c-.3 0-.4-.2-.4-.3.3-2 2.6-3.5 5.6-3.5 3.6-.1 5.7 1.8 5.7 4.4zm-2.7 4.7v-1.5c0-.1-.1-.1-.1-.1h-2.6c-2.2 0-3.6.8-3.6 2.3 0 1.4 1.2 2 2.7 2 1.9-.1 3.6-1.2 3.6-2.7zM174.7 87.8V70c0-.2.2-.4.4-.4h1.9c.3 0 .4.2.4.4v17.8c0 .2-.2.4-.4.4h-1.9c-.2 0-.4-.1-.4-.4zM187.1 87.8V70c0-.2.2-.4.4-.4h1.9c.2 0 .4.1.5.3l4.7 7.1c.1.1.1.1.2 0l4.7-7.1c.1-.2.3-.3.5-.3h1.9c.3 0 .4.2.4.4v17.8c0 .2-.2.4-.4.4H200c-.3 0-.4-.2-.4-.4V74.3c0-.1-.1-.2-.2-.1l-3.8 5.9c-.1.2-.3.3-.5.3h-.9c-.2 0-.4-.1-.5-.3l-3.8-5.9c-.1-.1-.2-.1-.2.1v13.5c0 .2-.2.4-.4.4h-1.9c-.1 0-.3-.1-.3-.4zM217.3 79v8.9c0 .2-.2.4-.4.4H215c-.3 0-.4-.2-.4-.4v-.7c0-.1-.1-.2-.2-.1-1 .9-2.5 1.4-4.2 1.4-2.5 0-4.7-1.2-4.7-4 0-2.7 2.1-4.4 5.8-4.4h3.1c.1 0 .1-.1.1-.1v-.7c0-1.5-.9-2.5-2.9-2.5-1.6 0-2.5.6-2.8 1.5-.1.2-.2.3-.5.3l-2-.2c-.3 0-.4-.2-.4-.3.3-2 2.6-3.5 5.6-3.5 3.7-.1 5.8 1.8 5.8 4.4zm-2.7 4.7v-1.5c0-.1-.1-.1-.1-.1h-2.6c-2.2 0-3.6.8-3.6 2.3 0 1.4 1.2 2 2.7 2 1.9-.1 3.6-1.2 3.6-2.7zM228.6 74.9c.2.1.3.3.2.5l-.4 1.7c-.1.3-.2.3-.5.2-.3-.1-.8-.2-1.4-.1-1.7.1-3 1.2-3 3v7.6c0 .2-.2.4-.4.4h-1.9c-.3 0-.4-.2-.4-.4V75.1c0-.2.2-.4.4-.4h1.9c.3 0 .4.2.4.4v1.2c0 .1.1.2.1.1.8-1.1 1.9-1.8 3.4-1.8.7 0 1.2.1 1.6.3zM231.1 87.8V70c0-.2.2-.4.4-.4h1.9c.3 0 .4.2.4.4v10.1c0 .1.1.2.2.1l5.1-5.2c.1-.2.3-.2.5-.2h2.2c.4 0 .4.2.2.5l-3.5 3.8c-.1.1-.1.1 0 .2l4.2 8.6c.1.3 0 .5-.3.5h-2c-.2 0-.4-.1-.5-.3l-3.3-7.1c0-.1-.1-.1-.2 0l-2.6 2.7c0 .1-.1.1-.1.2v4.2c0 .2-.2.4-.4.4h-1.9c-.1-.3-.3-.4-.3-.7zM253.8 84.6c.1-.2.3-.3.6-.2l1.2.7c.2.1.3.3.2.6-1 1.7-2.8 2.8-5.4 2.8-2.7 0-4.5-1.2-5.4-3.2-.4-1-.7-2.3-.7-3.8 0-1.2.1-2.1.3-3 .7-2.4 2.8-4 5.7-4 3.7 0 5.4 1.9 5.9 5.1.1.7.2 1.5.2 2.4 0 .3-.2.4-.4.4h-8.9c-.1 0-.1.1-.1.1 0 .6.1 1.1.2 1.4.4 1.4 1.7 2.3 3.5 2.3 1.3.1 2.4-.6 3.1-1.6zm-6.8-5.8c-.1.4-.2.9-.3 1.5 0 .1.1.1.1.1h6.4c.1 0 .1-.1.1-.1 0-.5-.1-1-.2-1.3-.4-1.4-1.5-2.3-3.2-2.3s-2.5.8-2.9 2.1zM265.8 76.8H263c-.1 0-.1.1-.1.1v6.9c0 1.5.7 2.1 2.2 2.1h.7c.3 0 .4.2.4.4v1.4c0 .2-.1.4-.4.4h-1.2c-2.6 0-4.3-.6-4.3-3.4v-7.9c0-.1-.1-.1-.1-.1h-1.5c-.3 0-.4-.2-.4-.4V75c0-.2.2-.4.4-.4h1.5c.1 0 .1-.1.1-.1v-3c0-.2.2-.4.4-.4h1.7c.3 0 .4.2.4.4v3c0 .1.1.1.1.1h2.9c.3 0 .4.2.4.4v1.3c.1.3-.1.5-.4.5zM269.2 71c0-1 .8-1.7 1.9-1.7 1.1 0 1.8.7 1.8 1.7s-.7 1.7-1.8 1.7c-1.2 0-1.9-.7-1.9-1.7zm.5 16.8V75.1c0-.2.2-.4.4-.4h1.9c.3 0 .4.2.4.4v12.8c0 .2-.2.4-.4.4h-1.9c-.3-.1-.4-.2-.4-.5zM287.7 79.2v8.7c0 .2-.2.4-.4.4h-1.9c-.3 0-.4-.2-.4-.4v-8.1c0-1.8-1.2-3-3-3-1.6 0-2.8 1-3 2.5v8.6c0 .2-.2.4-.4.4h-1.9c-.3 0-.4-.2-.4-.4V75.1c0-.2.2-.4.4-.4h1.9c.3 0 .4.2.4.4v.7c0 .1.1.2.1.1.8-1 2-1.4 3.5-1.4 3.2 0 5.1 1.8 5.1 4.7zM300.6 74.7h1.9c.3 0 .4.2.4.4v12.5c0 5.1-3.9 6.3-8.3 5.9-.3 0-.4-.2-.4-.4l.1-1.6c0-.2.2-.4.5-.4 3.8.2 5.5-.7 5.5-3.6V87c0-.1-.1-.1-.2-.1-.7.8-1.8 1.3-3.4 1.3-2.2 0-4.5-1.1-5.3-3.6-.3-.9-.4-2-.4-3.2 0-1.3.1-2.4.4-3.4.7-2.1 2.6-3.5 5.1-3.5 1.6 0 2.8.5 3.6 1.3.1.1.2.1.2-.1v-.6c-.1-.2.1-.4.3-.4zm-.4 6.7c0-1.6-.1-1.9-.2-2.5-.3-1.3-1.3-2.2-3-2.2-1.6 0-2.7 1-3.1 2.2-.2.5-.3 1.2-.3 2.5s.1 2.1.3 2.5c.4 1.3 1.5 2.2 3.1 2.2 1.7 0 2.7-1 3-2.2.1-.5.2-.9.2-2.5z"/></g></svg>