<?xml version="1.0" encoding="utf-8"?>
<!-- Generator: Adobe Illustrator 21.1.0, SVG Export Plug-In . SVG Version: 6.00 Build 0)  -->
<svg version="1.1" id="Layer_1" xmlns="http://www.w3.org/2000/svg" xmlns:xlink="http://www.w3.org/1999/xlink" x="0px" y="0px"
	 viewBox="0 0 399.3 100.7" style="enable-background:new 0 0 399.3 100.7;" xml:space="preserve">
<style type="text/css">
	.st0{fill:#000046;}
	.st1{fill:none;stroke:#000046;stroke-width:6;stroke-miterlimit:10;}
	.st2{fill:#FFFFFF;}
	.st3{fill:#1A1A1A;}
</style>
<path class="st0" d="M56.6,50.4l-7.4,7.4c-3.5,3.5-9.3,3.5-12.9,0l-1.4-1.4c-3.5-3.5-3.5-9.3,0-12.9l7.4-7.4c3.5-3.5,9.3-3.5,12.9,0
	l1.4,1.4C60.1,41.1,60.1,46.9,56.6,50.4z"/>
<path class="st1" d="M33.1,60.5l-8.6,8.8c-4,4.2-7,6.4-8,9.3C12.3,90.6,26,97.2,33.2,89"/>
<path class="st2" d="M44.8,48.7c1,1,1,2.5,0,3.5l-5.6,5.6c-1,1-2.6,1-3.5,0l-0.5-0.5c-1-1-1-2.6,0-3.5l5.6-5.6
	c0.9-0.9,2.2-1,3.2-0.3l0,0l3.4-3.4c0.2-0.2,0.6-0.2,0.8,0l0,0c0.2,0.2,0.2,0.6,0,0.8L44.8,48.7z M41.6,51.6l-0.2-0.2
	c-0.5-0.5-1.3-0.5-1.7,0l-2.5,2.5c-0.5,0.5-0.5,1.3,0,1.7l0.2,0.2c0.5,0.5,1.3,0.5,1.7,0l2.5-2.5C42.1,52.8,42.1,52.1,41.6,51.6z"/>
<path class="st0" d="M27.5,75.4c5.6,3.9,12.5,6.2,19.9,6.2c19.3,0,34.9-15.6,34.9-34.9S66.7,11.8,47.4,11.8S12.5,27.5,12.5,46.7
	c0,7.3,2.2,14,6,19.6l-4.8,4.5c-4.9-6.8-7.8-15.1-7.8-24.1c0-22.9,18.5-41.4,41.4-41.4s41.4,18.5,41.4,41.4S70.2,88.2,47.4,88.2
	c-9.1,0-17.5-2.9-24.3-7.9L27.5,75.4z"/>
<path class="st0" d="M38,63.8c2.8,1.5,6,2.4,9.4,2.4c10.8,0,19.5-8.7,19.5-19.5s-8.7-19.5-19.5-19.5S27.9,36,27.9,46.7
	c0,3.1,0.8,6.2,2.1,8.9l-4.8,4.5c-2.3-3.9-3.7-8.4-3.7-13.3c0-14.3,11.6-25.9,25.9-25.9s25.9,11.6,25.9,25.9S61.6,72.6,47.4,72.6
	c-5.1,0-9.9-1.5-13.9-4L38,63.8z"/>
<g>
	<path class="st3" d="M133.6,18.6h-17c-0.2,0-0.4,0.2-0.4,0.4v12.3c0,0.2,0.2,0.4,0.4,0.4h9.7c0.6,0,1,0.4,1,0.9v7.5
		c0,0.5-0.4,0.9-1,0.9h-9.7c-0.2,0-0.4,0.2-0.4,0.4v21.2c0,0.5-0.4,0.9-1,0.9h-9.6c-0.6,0-1-0.4-1-0.9V10.1c0-0.5,0.4-0.9,1-0.9h28
		c0.6,0,1,0.4,1,0.9v7.5C134.6,18.2,134.2,18.6,133.6,18.6z"/>
	<path class="st3" d="M156.5,24c0.4,0.3,0.5,0.7,0.4,1.2l-1.6,9.1c-0.1,0.7-0.5,0.8-1.1,0.6c-1.2-0.4-2.9-0.5-4.3,0
		c-2.5,0.5-4.3,3.3-4.3,6.4v21.4c0,0.5-0.4,0.9-1,0.9h-9.6c-0.6,0-1-0.4-1-0.9V24.6c0-0.5,0.4-0.9,1-0.9h9.6c0.6,0,1,0.4,1,0.9v3.2
		c0,0.4,0.2,0.5,0.4,0.2c1.3-2.8,3.4-4.8,7-4.8C154.6,23.1,155.7,23.5,156.5,24z"/>
	<path class="st3" d="M158,51.2V36.1c0-7.8,5.7-13,15.5-13s15.5,5.3,15.5,13v15.1c0,8.2-5.7,13-15.5,13S158,59.3,158,51.2z
		 M177.6,50.3V36.9c0-2.6-1.6-4.4-4-4.4s-4,1.8-4,4.4v13.4c0,2.6,1.6,4.5,4,4.5S177.6,52.9,177.6,50.3z"/>
	<path class="st3" d="M223.8,36.3v26.3c0,0.5-0.4,0.9-1,0.9h-9.6c-0.6,0-1-0.4-1-0.9V37.2c0-3-1.3-4.7-3.7-4.7
		c-2.5,0-3.9,1.8-3.9,4.9v25.3c0,0.5-0.4,0.9-1,0.9h-9.6c-0.6,0-1-0.4-1-0.9V24.6c0-0.5,0.4-0.9,1-0.9h9.6c0.6,0,1,0.4,1,0.9v1.6
		c0,0.3,0.3,0.3,0.7-0.2c2.1-2.4,5-3,7.4-3C220.3,23,223.8,28.1,223.8,36.3z"/>
	<path class="st3" d="M246.2,31.3h-4.6c-0.2,0-0.4,0.2-0.4,0.4v18.5c0,3.2,1.4,4,3.6,3.9h0.6c0.6,0,1,0.4,1,0.9v7.6
		c0,0.5-0.4,0.9-1,0.9h-3.3c-7.1,0-12-1.5-12-9.2V31.7c0-0.2-0.2-0.4-0.4-0.4H227c-0.6,0-1-0.4-1-0.9v-5.8c0-0.5,0.4-0.9,1-0.9h2.7
		c0.2,0,0.4-0.2,0.4-0.4v-8.6c0-0.5,0.4-0.9,1-0.9h9.2c0.6,0,1,0.4,1,0.9v8.6c0,0.2,0.2,0.4,0.4,0.4h4.6c0.6,0,1,0.4,1,0.9v5.8
		C247.2,31,246.8,31.3,246.2,31.3z"/>
	<path class="st3" d="M249.9,50v-2.5c0-0.5,0.4-0.9,1-0.9h9.4c0.6,0,1,0.4,1,0.9v1.9c0,3.3,1.9,5.4,4.5,5.4c2.6,0,4.6-2,4.6-5
		c0-3.3-2.4-5-7.9-8.9c-6.1-4.1-12.8-8.7-12.8-17.7c0-8.9,6.4-14.5,15.7-14.5c9.7,0,16,6,16,14.9v1.9c0,0.5-0.4,0.9-1,0.9H271
		c-0.6,0-1-0.4-1-0.9v-2.1c0-3.2-1.9-5.3-4.7-5.3c-2.5,0-4.3,1.9-4.3,5.1c0,3.3,1.9,5,7.6,9.1c8.5,5.9,13.1,9.3,13.1,17.1
		c0,9.2-6.5,14.9-16,14.9C256.2,64.2,249.9,58.4,249.9,50z"/>
	<path class="st3" d="M284.8,13.4c0-3.9,2.7-6.5,6.7-6.5s6.6,2.6,6.6,6.5c0,3.9-2.6,6.4-6.6,6.4S284.8,17.3,284.8,13.4z M285.7,62.6
		V24.6c0-0.5,0.4-0.9,1-0.9h9.6c0.6,0,1,0.4,1,0.9v38.1c0,0.5-0.4,0.9-1,0.9h-9.6C286.1,63.6,285.7,63.2,285.7,62.6z"/>
	<path class="st3" d="M321.9,23.7h9.6c0.6,0,1,0.4,1,0.9v37.1c0,11-4.3,19-23.2,17.9c-0.7-0.1-1-0.5-1-1V71c0-0.6,0.4-0.9,1.1-0.9
		c10.1,0.4,11.5-3.4,11.5-9.6c0-0.3-0.2-0.3-0.5,0c-2.2,2.7-5.5,3.3-7.6,3.3c-7.7,0-11.2-5.1-11.2-13V36.1c0-8.3,3.8-13,11.2-13
		c2.4,0,5.5,0.6,7.6,3.5c0.2,0.3,0.5,0.2,0.5-0.2v-1.8C321,24,321.4,23.7,321.9,23.7z M321,50V36.9c0-2.6-1.6-4.4-3.9-4.4
		c-2.3,0-3.8,1.8-3.8,4.4V50c0,2.6,1.6,4.4,3.8,4.4C319.3,54.4,321,52.6,321,50z"/>
	<path class="st3" d="M367.4,36.3v26.3c0,0.5-0.4,0.9-1,0.9h-9.6c-0.6,0-1-0.4-1-0.9V37.2c0-3-1.3-4.7-3.7-4.7
		c-2.5,0-3.9,1.8-3.9,4.9v25.3c0,0.5-0.4,0.9-1,0.9h-9.6c-0.6,0-1-0.4-1-0.9V10.1c0-0.5,0.4-0.9,1-0.9h9.6c0.6,0,1,0.4,1,0.9v16
		c0,0.3,0.3,0.3,0.7-0.2c2.1-2.4,5-3,7.4-3C363.8,23,367.4,28.1,367.4,36.3z"/>
	<path class="st3" d="M389.8,31.3h-4.6c-0.2,0-0.4,0.2-0.4,0.4v18.5c0,3.2,1.4,4,3.6,3.9h0.6c0.6,0,1,0.4,1,0.9v7.6
		c0,0.5-0.4,0.9-1,0.9h-3.3c-7.1,0-12-1.5-12-9.2V31.7c0-0.2-0.2-0.4-0.4-0.4h-2.7c-0.6,0-1-0.4-1-0.9v-5.8c0-0.5,0.4-0.9,1-0.9h2.7
		c0.2,0,0.4-0.2,0.4-0.4v-8.6c0-0.5,0.4-0.9,1-0.9h9.2c0.6,0,1,0.4,1,0.9v8.6c0,0.2,0.2,0.4,0.4,0.4h4.6c0.6,0,1,0.4,1,0.9v5.8
		C390.8,31,390.4,31.3,389.8,31.3z"/>
</g>
<g>
	<path class="st3" d="M104.4,87.8V70c0-0.2,0.2-0.4,0.4-0.4h6.7c3.9,0,6.4,2.1,6.4,5.3v8c0,3.2-2.5,5.3-6.4,5.3h-6.7
		C104.5,88.2,104.4,88.1,104.4,87.8z M107.2,86h4.3c2.2,0,3.6-1.4,3.6-3.5v-7.2c0-2.1-1.4-3.5-3.6-3.5h-4.3c-0.1,0-0.1,0.1-0.1,0.1
		v14C107.1,86,107.1,86,107.2,86z"/>
	<path class="st3" d="M120.9,71c0-1,0.8-1.7,1.9-1.7s1.8,0.7,1.8,1.7s-0.7,1.7-1.8,1.7S120.9,72,120.9,71z M121.5,87.8V75.1
		c0-0.2,0.2-0.4,0.4-0.4h1.9c0.3,0,0.4,0.2,0.4,0.4v12.8c0,0.2-0.2,0.4-0.4,0.4h-1.9C121.6,88.2,121.5,88.1,121.5,87.8z"/>
	<path class="st3" d="M137.3,74.7h1.9c0.3,0,0.4,0.2,0.4,0.4v12.5c0,5.1-3.9,6.3-8.3,5.9c-0.3,0-0.4-0.2-0.4-0.4l0.1-1.6
		c0-0.2,0.2-0.4,0.5-0.4c3.8,0.2,5.5-0.7,5.5-3.6V87c0-0.1-0.1-0.1-0.2-0.1c-0.7,0.8-1.8,1.3-3.4,1.3c-2.2,0-4.5-1.1-5.3-3.6
		c-0.3-0.9-0.4-2-0.4-3.2c0-1.3,0.1-2.4,0.4-3.4c0.7-2.1,2.6-3.5,5.1-3.5c1.6,0,2.8,0.5,3.6,1.3c0.1,0.1,0.2,0.1,0.2-0.1v-0.6
		C136.9,74.9,137.1,74.7,137.3,74.7z M136.9,81.4c0-1.6-0.1-1.9-0.2-2.5c-0.3-1.3-1.3-2.2-3-2.2c-1.6,0-2.7,1-3.1,2.2
		c-0.2,0.5-0.3,1.2-0.3,2.5c0,1.3,0.1,2.1,0.3,2.5c0.4,1.3,1.5,2.2,3.1,2.2c1.7,0,2.7-1,3-2.2C136.9,83.4,136.9,83,136.9,81.4z"/>
	<path class="st3" d="M142.9,71c0-1,0.8-1.7,1.9-1.7s1.8,0.7,1.8,1.7s-0.7,1.7-1.8,1.7S142.9,72,142.9,71z M143.5,87.8V75.1
		c0-0.2,0.2-0.4,0.4-0.4h1.9c0.3,0,0.4,0.2,0.4,0.4v12.8c0,0.2-0.2,0.4-0.4,0.4h-1.9C143.6,88.2,143.5,88.1,143.5,87.8z"/>
	<path class="st3" d="M156.8,76.8h-2.9c-0.1,0-0.1,0.1-0.1,0.1v6.9c0,1.5,0.7,2.1,2.2,2.1h0.7c0.3,0,0.4,0.2,0.4,0.4v1.4
		c0,0.2-0.1,0.4-0.4,0.4c-0.4,0-0.8,0-1.2,0c-2.6,0-4.3-0.6-4.3-3.4v-7.9c0-0.1-0.1-0.1-0.1-0.1h-1.5c-0.3,0-0.4-0.2-0.4-0.4v-1.3
		c0-0.2,0.2-0.4,0.4-0.4h1.5c0.1,0,0.1-0.1,0.1-0.1v-3c0-0.2,0.2-0.4,0.4-0.4h1.7c0.3,0,0.4,0.2,0.4,0.4v3c0,0.1,0.1,0.1,0.1,0.1
		h2.9c0.3,0,0.4,0.2,0.4,0.4v1.3C157.2,76.6,157,76.8,156.8,76.8z"/>
	<path class="st3" d="M171.2,79v8.9c0,0.2-0.2,0.4-0.4,0.4H169c-0.3,0-0.4-0.2-0.4-0.4v-0.7c0-0.1-0.1-0.2-0.2-0.1
		c-1,0.9-2.5,1.4-4.2,1.4c-2.5,0-4.7-1.2-4.7-4c0-2.7,2.1-4.4,5.8-4.4h3.1c0.1,0,0.1-0.1,0.1-0.1v-0.7c0-1.5-0.9-2.5-2.9-2.5
		c-1.6,0-2.5,0.6-2.8,1.5c-0.1,0.2-0.2,0.3-0.5,0.3l-2-0.2c-0.3,0-0.4-0.2-0.4-0.3c0.3-2,2.6-3.5,5.6-3.5
		C169.1,74.5,171.2,76.4,171.2,79z M168.5,83.7v-1.5c0-0.1-0.1-0.1-0.1-0.1h-2.6c-2.2,0-3.6,0.8-3.6,2.3c0,1.4,1.2,2,2.7,2
		C166.8,86.3,168.5,85.2,168.5,83.7z"/>
	<path class="st3" d="M174.7,87.8V70c0-0.2,0.2-0.4,0.4-0.4h1.9c0.3,0,0.4,0.2,0.4,0.4v17.8c0,0.2-0.2,0.4-0.4,0.4h-1.9
		C174.9,88.2,174.7,88.1,174.7,87.8z"/>
	<path class="st3" d="M187.1,87.8V70c0-0.2,0.2-0.4,0.4-0.4h1.9c0.2,0,0.4,0.1,0.5,0.3l4.7,7.1c0.1,0.1,0.1,0.1,0.2,0l4.7-7.1
		c0.1-0.2,0.3-0.3,0.5-0.3h1.9c0.3,0,0.4,0.2,0.4,0.4v17.8c0,0.2-0.2,0.4-0.4,0.4H200c-0.3,0-0.4-0.2-0.4-0.4V74.3
		c0-0.1-0.1-0.2-0.2-0.1l-3.8,5.9c-0.1,0.2-0.3,0.3-0.5,0.3h-0.9c-0.2,0-0.4-0.1-0.5-0.3l-3.8-5.9c-0.1-0.1-0.2-0.1-0.2,0.1v13.5
		c0,0.2-0.2,0.4-0.4,0.4h-1.9C187.3,88.2,187.1,88.1,187.1,87.8z"/>
	<path class="st3" d="M217.3,79v8.9c0,0.2-0.2,0.4-0.4,0.4h-1.9c-0.3,0-0.4-0.2-0.4-0.4v-0.7c0-0.1-0.1-0.2-0.2-0.1
		c-1,0.9-2.5,1.4-4.2,1.4c-2.5,0-4.7-1.2-4.7-4c0-2.7,2.1-4.4,5.8-4.4h3.1c0.1,0,0.1-0.1,0.1-0.1v-0.7c0-1.5-0.9-2.5-2.9-2.5
		c-1.6,0-2.5,0.6-2.8,1.5c-0.1,0.2-0.2,0.3-0.5,0.3l-2-0.2c-0.3,0-0.4-0.2-0.4-0.3c0.3-2,2.6-3.5,5.6-3.5
		C215.2,74.5,217.3,76.4,217.3,79z M214.6,83.7v-1.5c0-0.1-0.1-0.1-0.1-0.1h-2.6c-2.2,0-3.6,0.8-3.6,2.3c0,1.4,1.2,2,2.7,2
		C212.9,86.3,214.6,85.2,214.6,83.7z"/>
	<path class="st3" d="M228.6,74.9c0.2,0.1,0.3,0.3,0.2,0.5l-0.4,1.7c-0.1,0.3-0.2,0.3-0.5,0.2c-0.3-0.1-0.8-0.2-1.4-0.1
		c-1.7,0.1-3,1.2-3,3v7.6c0,0.2-0.2,0.4-0.4,0.4h-1.9c-0.3,0-0.4-0.2-0.4-0.4V75.1c0-0.2,0.2-0.4,0.4-0.4h1.9c0.3,0,0.4,0.2,0.4,0.4
		v1.2c0,0.1,0.1,0.2,0.1,0.1c0.8-1.1,1.9-1.8,3.4-1.8C227.7,74.6,228.2,74.7,228.6,74.9z"/>
	<path class="st3" d="M231.1,87.8V70c0-0.2,0.2-0.4,0.4-0.4h1.9c0.3,0,0.4,0.2,0.4,0.4v10.1c0,0.1,0.1,0.2,0.2,0.1l5.1-5.2
		c0.1-0.2,0.3-0.2,0.5-0.2h2.2c0.4,0,0.4,0.2,0.2,0.5l-3.5,3.8c-0.1,0.1-0.1,0.1,0,0.2l4.2,8.6c0.1,0.3,0,0.5-0.3,0.5h-2
		c-0.2,0-0.4-0.1-0.5-0.3l-3.3-7.1c0-0.1-0.1-0.1-0.2,0l-2.6,2.7c0,0.1-0.1,0.1-0.1,0.2v4.2c0,0.2-0.2,0.4-0.4,0.4h-1.9
		C231.3,88.2,231.1,88.1,231.1,87.8z"/>
	<path class="st3" d="M253.8,84.6c0.1-0.2,0.3-0.3,0.6-0.2l1.2,0.7c0.2,0.1,0.3,0.3,0.2,0.6c-1,1.7-2.8,2.8-5.4,2.8
		c-2.7,0-4.5-1.2-5.4-3.2c-0.4-1-0.7-2.3-0.7-3.8c0-1.2,0.1-2.1,0.3-3c0.7-2.4,2.8-4,5.7-4c3.7,0,5.4,1.9,5.9,5.1
		c0.1,0.7,0.2,1.5,0.2,2.4c0,0.3-0.2,0.4-0.4,0.4h-8.9c-0.1,0-0.1,0.1-0.1,0.1c0,0.6,0.1,1.1,0.2,1.4c0.4,1.4,1.7,2.3,3.5,2.3
		C252,86.3,253.1,85.6,253.8,84.6z M247,78.8c-0.1,0.4-0.2,0.9-0.3,1.5c0,0.1,0.1,0.1,0.1,0.1h6.4c0.1,0,0.1-0.1,0.1-0.1
		c0-0.5-0.1-1-0.2-1.3c-0.4-1.4-1.5-2.3-3.2-2.3S247.4,77.5,247,78.8z"/>
	<path class="st3" d="M265.8,76.8H263c-0.1,0-0.1,0.1-0.1,0.1v6.9c0,1.5,0.7,2.1,2.2,2.1h0.7c0.3,0,0.4,0.2,0.4,0.4v1.4
		c0,0.2-0.1,0.4-0.4,0.4c-0.4,0-0.8,0-1.2,0c-2.6,0-4.3-0.6-4.3-3.4v-7.9c0-0.1-0.1-0.1-0.1-0.1h-1.5c-0.3,0-0.4-0.2-0.4-0.4v-1.3
		c0-0.2,0.2-0.4,0.4-0.4h1.5c0.1,0,0.1-0.1,0.1-0.1v-3c0-0.2,0.2-0.4,0.4-0.4h1.7c0.3,0,0.4,0.2,0.4,0.4v3c0,0.1,0.1,0.1,0.1,0.1
		h2.9c0.3,0,0.4,0.2,0.4,0.4v1.3C266.3,76.6,266.1,76.8,265.8,76.8z"/>
	<path class="st3" d="M269.2,71c0-1,0.8-1.7,1.9-1.7c1.1,0,1.8,0.7,1.8,1.7s-0.7,1.7-1.8,1.7C269.9,72.7,269.2,72,269.2,71z
		 M269.7,87.8V75.1c0-0.2,0.2-0.4,0.4-0.4h1.9c0.3,0,0.4,0.2,0.4,0.4v12.8c0,0.2-0.2,0.4-0.4,0.4h-1.9
		C269.8,88.2,269.7,88.1,269.7,87.8z"/>
	<path class="st3" d="M287.7,79.2v8.7c0,0.2-0.2,0.4-0.4,0.4h-1.9c-0.3,0-0.4-0.2-0.4-0.4v-8.1c0-1.8-1.2-3-3-3c-1.6,0-2.8,1-3,2.5
		v8.6c0,0.2-0.2,0.4-0.4,0.4h-1.9c-0.3,0-0.4-0.2-0.4-0.4V75.1c0-0.2,0.2-0.4,0.4-0.4h1.9c0.3,0,0.4,0.2,0.4,0.4v0.7
		c0,0.1,0.1,0.2,0.1,0.1c0.8-1,2-1.4,3.5-1.4C285.8,74.5,287.7,76.3,287.7,79.2z"/>
	<path class="st3" d="M300.6,74.7h1.9c0.3,0,0.4,0.2,0.4,0.4v12.5c0,5.1-3.9,6.3-8.3,5.9c-0.3,0-0.4-0.2-0.4-0.4l0.1-1.6
		c0-0.2,0.2-0.4,0.5-0.4c3.8,0.2,5.5-0.7,5.5-3.6V87c0-0.1-0.1-0.1-0.2-0.1c-0.7,0.8-1.8,1.3-3.4,1.3c-2.2,0-4.5-1.1-5.3-3.6
		c-0.3-0.9-0.4-2-0.4-3.2c0-1.3,0.1-2.4,0.4-3.4c0.7-2.1,2.6-3.5,5.1-3.5c1.6,0,2.8,0.5,3.6,1.3c0.1,0.1,0.2,0.1,0.2-0.1v-0.6
		C300.2,74.9,300.4,74.7,300.6,74.7z M300.2,81.4c0-1.6-0.1-1.9-0.2-2.5c-0.3-1.3-1.3-2.2-3-2.2c-1.6,0-2.7,1-3.1,2.2
		c-0.2,0.5-0.3,1.2-0.3,2.5c0,1.3,0.1,2.1,0.3,2.5c0.4,1.3,1.5,2.2,3.1,2.2c1.7,0,2.7-1,3-2.2C300.1,83.4,300.2,83,300.2,81.4z"/>
</g>
</svg>
