<svg version="1.1" id="Layer_1" xmlns="http://www.w3.org/2000/svg" x="0" y="0" viewBox="0 0 399.3 100.7" xml:space="preserve"><style>.st0{fill:#000046;stroke:#000046;stroke-miterlimit:10}.st3{fill:#1a1a1a}</style><path class="st0" d="M56.6 50.4l-7.4 7.4c-3.5 3.5-9.3 3.5-12.9 0l-1.4-1.4c-3.5-3.5-3.5-9.3 0-12.9l7.4-7.4c3.5-3.5 9.3-3.5 12.9 0l1.4 1.4c3.5 3.6 3.5 9.4 0 12.9z"/><path d="M33.1 60.5l-8.6 8.8c-4 4.2-7 6.4-8 9.3-4.2 12 9.5 18.6 16.7 10.4" fill="none" stroke="#000046" stroke-width="8" stroke-miterlimit="10"/><path d="M44.8 48.7c1 1 1 2.5 0 3.5l-5.6 5.6c-1 1-2.6 1-3.5 0l-.5-.5c-1-1-1-2.6 0-3.5l5.6-5.6c.9-.9 2.2-1 3.2-.3h0l3.4-3.4c.2-.2.6-.2.8 0h0c.2.2.2.6 0 .8l-3.4 3.4zm-3.2 2.9l-.2-.2c-.5-.5-1.3-.5-1.7 0l-2.5 2.5c-.5.5-.5 1.3 0 1.7l.2.2c.5.5 1.3.5 1.7 0l2.5-2.5c.5-.5.5-1.2 0-1.7z" fill="#f2f2f2" stroke="#000046" stroke-miterlimit="10"/><path class="st0" d="M27.5 75.4c5.6 3.9 12.5 6.2 19.9 6.2 19.3 0 34.9-15.6 34.9-34.9S66.7 11.8 47.4 11.8 12.5 27.5 12.5 46.7c0 7.3 2.2 14 6 19.6l-4.8 4.5C8.8 64 5.9 55.7 5.9 46.7c0-22.9 18.5-41.4 41.4-41.4s41.4 18.5 41.4 41.4-18.5 41.5-41.3 41.5c-9.1 0-17.5-2.9-24.3-7.9l4.4-4.9z"/><path class="st0" d="M38 63.8c2.8 1.5 6 2.4 9.4 2.4 10.8 0 19.5-8.7 19.5-19.5s-8.7-19.5-19.5-19.5S27.9 36 27.9 46.7c0 3.1.8 6.2 2.1 8.9l-4.8 4.5c-2.3-3.9-3.7-8.4-3.7-13.3 0-14.3 11.6-25.9 25.9-25.9s25.9 11.6 25.9 25.9-11.7 25.8-25.9 25.8c-5.1 0-9.9-1.5-13.9-4l4.5-4.8z"/><text transform="matrix(1.0538 0 0 1 101.065 63.58)" class="st3" letter-spacing="-.9" font-size="77.665" font-family="BarlowCondensed-Bold">FrontSight</text><text transform="matrix(1.0538 0 0 1 102.064 88.249)" class="st3" font-size="26.629" font-family="Barlow-Medium">Digital Marketing</text></svg>